<svg xmlns="http://www.w3.org/2000/svg" width="1200" height="400" viewBox="0 0 1200 400" role="img" aria-label="Info Pembayaran QRIS">
  <defs>
    <linearGradient id="bg" x1="0" y1="0" x2="1" y2="1">
      <stop offset="0" stop-color="#0891b2"/>
      <stop offset="1" stop-color="#2563eb"/>
    </linearGradient>
  </defs>
  <rect width="1200" height="400" fill="url(#bg)"/>
  <circle cx="100" cy="80" r="110" fill="#ffffff" opacity="0.08"/>
  <circle cx="1110" cy="320" r="130" fill="#ffffff" opacity="0.08"/>
  <circle cx="900" cy="70" r="16" fill="#ffffff" opacity="0.25"/>
  <g transform="translate(160 100)">
    <rect x="0" y="0" width="160" height="160" rx="16" fill="#ffffff" opacity="0.95"/>
    <g fill="#0e7490">
      <rect x="18" y="18" width="36" height="36" rx="4"/>
      <rect x="106" y="18" width="36" height="36" rx="4"/>
      <rect x="18" y="106" width="36" height="36" rx="4"/>
      <rect x="62" y="62" width="18" height="18"/>
      <rect x="88" y="88" width="18" height="18"/>
      <rect x="112" y="112" width="30" height="30" rx="4"/>
      <rect x="66" y="18" width="12" height="12"/>
      <rect x="18" y="66" width="12" height="12"/>
    </g>
  </g>
  <g font-family="Arial, Helvetica, sans-serif" text-anchor="middle">
    <text x="620" y="215" font-size="66" font-weight="bold" fill="#ffffff">Bayar Mudah dengan QRIS</text>
    <text x="620" y="285" font-size="34" fill="#cffafe">Scan &#8226; Tunai &#8226; Transfer &#8212; semua bisa</text>
  </g>
</svg>
